<svg xmlns="http://www.w3.org/2000/svg" width="720" height="980" viewBox="0 0 720 980" role="img" aria-labelledby="title desc"><title id="title">简历预览占位图</title><desc id="desc">谢中锐个人简历预览占位图。</desc><rect width="720" height="980" fill="#ffffff"/><rect x="0" y="0" width="720" height="132" fill="#2563eb"/><text x="54" y="78" fill="#ffffff" font-family="Arial, sans-serif" font-size="42" font-weight="800">谢中锐</text><text x="54" y="112" fill="#dbeafe" font-family="Arial, sans-serif" font-size="20">电商视觉设计 / 跨境电商运营助理方向</text><rect x="54" y="178" width="190" height="22" rx="11" fill="#f97316"/><rect x="54" y="228" width="612" height="16" rx="8" fill="#e2e8f0"/><rect x="54" y="260" width="512" height="16" rx="8" fill="#e2e8f0"/><rect x="54" y="316" width="150" height="20" rx="10" fill="#2563eb"/><rect x="54" y="364" width="612" height="14" rx="7" fill="#d9e2ef"/><rect x="54" y="396" width="575" height="14" rx="7" fill="#d9e2ef"/><rect x="54" y="428" width="520" height="14" rx="7" fill="#d9e2ef"/><rect x="54" y="496" width="150" height="20" rx="10" fill="#2563eb"/><rect x="54" y="544" width="280" height="70" rx="12" fill="#eef4ff"/><rect x="386" y="544" width="280" height="70" rx="12" fill="#fff3e8"/><rect x="54" y="646" width="280" height="70" rx="12" fill="#f8fafc" stroke="#d9e2ef"/><rect x="386" y="646" width="280" height="70" rx="12" fill="#f8fafc" stroke="#d9e2ef"/><rect x="54" y="780" width="150" height="20" rx="10" fill="#2563eb"/><rect x="54" y="828" width="612" height="14" rx="7" fill="#d9e2ef"/><rect x="54" y="860" width="548" height="14" rx="7" fill="#d9e2ef"/><rect x="54" y="892" width="470" height="14" rx="7" fill="#d9e2ef"/></svg>